# xmcd CD database file
#
# Track frame offsets:
#	150
#	14148
#	38596
#	59133
#	90737
#	99374
#	140719
#	162437
#	193506
#	207830
#
# Disc length: 2964 seconds
#
# Revision: 0
# Processed by: cddbd v1.5.1PL2 Copyright (c) Steve Scherf et al.
# Submitted via: CDex 1.51
#
DISCID=8e0b920a
DTITLE=Gary Regina - In the Loop
DYEAR=2000
DGENRE=Jazz
TTITLE0=Night Music
TTITLE1=Caravan
TTITLE2=Down the Way
TTITLE3=Dewey
TTITLE4=4 Theme for Pope
TTITLE5=Every After
TTITLE6=Open Heart
TTITLE7=Footprints
TTITLE8=Road to Brisbane
TTITLE9=Rainy Day with U
EXTD=YEAR: 2000
EXTT0=
EXTT1=
EXTT2=
EXTT3=
EXTT4=
EXTT5=
EXTT6=
EXTT7=
EXTT8=
EXTT9=
PLAYORDER=
